<?xml version="1.0" encoding="UTF-8" standalone="no"?>
<svg
   viewBox="0 0 600 600"
   version="1.1"
   id="svg17"
   sodipodi:docname="io.github.enginkirmaci.lumux.svg"
   width="600"
   height="600"
   inkscape:version="1.4.3 (0d15f75042, 2025-12-25)"
   xmlns:inkscape="http://www.inkscape.org/namespaces/inkscape"
   xmlns:sodipodi="http://sodipodi.sourceforge.net/DTD/sodipodi-0.dtd"
   xmlns="http://www.w3.org/2000/svg"
   xmlns:svg="http://www.w3.org/2000/svg">
  <sodipodi:namedview
     id="namedview17"
     pagecolor="#ffffff"
     bordercolor="#000000"
     borderopacity="0.25"
     inkscape:showpageshadow="2"
     inkscape:pageopacity="0.0"
     inkscape:pagecheckerboard="0"
     inkscape:deskcolor="#d1d1d1"
     inkscape:zoom="1.9083333"
     inkscape:cx="315.19652"
     inkscape:cy="307.86027"
     inkscape:window-width="1905"
     inkscape:window-height="1371"
     inkscape:window-x="0"
     inkscape:window-y="0"
     inkscape:window-maximized="0"
     inkscape:current-layer="g18" />
  <!-- Background -->
  <!-- Monitor stand -->
  <!-- Monitor frame -->
  <!-- Screen area with black background -->
  <!-- Rainbow burst rays -->
  <defs
     id="defs6">
    <clipPath
       id="screenClip">
      <rect
         x="150"
         y="130"
         width="500"
         height="330"
         rx="8"
         id="rect6" />
    </clipPath>
  </defs>
  <!-- Bottom bezel -->
  <g
     id="g18"
     transform="matrix(1.1016577,0,0,1.1016577,-140.66307,-55.284603)">
    <rect
       x="360"
       y="460"
       width="80"
       height="60"
       fill="#d0d0d0"
       rx="5"
       id="rect2" />
    <rect
       x="320"
       y="497.06924"
       width="160"
       height="27.930769"
       fill="#d0d0d0"
       rx="5"
       id="rect3"
       style="stroke-width:1.72471" />
    <g
       clip-path="url(#screenClip)"
       id="g17"
       mask="none"
       style="display:inline">
      <!-- Center point for burst at bottom center of screen -->
      <g
         transform="translate(400,460)"
         id="g16"
         mask="none">
        <!-- Purple (left edge) -->
        <path
           d="M 0,-4.9988968e-6 -250.27802,-50.299353 V -175.08363 Z"
           fill="#7b3f8f"
           id="path6"
           sodipodi:nodetypes="cccc" />
        <!-- Blue-Purple -->
        <path
           d="m 0,0 -250.27802,-170.64046 v -78.22481 z"
           fill="#6a5acd"
           id="path7"
           sodipodi:nodetypes="cccc" />
        <!-- Blue -->
        <path
           d="M 0,0 -250.27802,-242.6491 V -330 H -200 Z"
           fill="#3fa9f5"
           id="path8"
           sodipodi:nodetypes="ccccc" />
        <!-- Cyan -->
        <path
           d="m 0,0 -200,-330 h 80 z"
           fill="#00bcd4"
           id="path9" />
        <!-- Green -->
        <path
           d="m 0,0 -120,-330 h 80 z"
           fill="#4caf50"
           id="path10" />
        <!-- Yellow-Green -->
        <path
           d="M 0,0 -40,-330 H 40 Z"
           fill="#9ccc65"
           id="path11" />
        <!-- Yellow -->
        <path
           d="m 0,0 40,-330 h 80 z"
           fill="#ffeb3b"
           id="path12" />
        <!-- Orange -->
        <path
           d="m 0,0 120,-330 h 80 z"
           fill="#ffa726"
           id="path13" />
        <!-- Red-Orange -->
        <path
           d="m 0,0 200,-330.00037 h 50.03212 v 81.1351 z"
           fill="#ff5722"
           id="path14"
           sodipodi:nodetypes="ccccc" />
        <!-- Red (right edge) -->
        <path
           d="m 0,0 250.03212,-248.86527 v 75.61358 z"
           fill="#e53935"
           id="path15"
           sodipodi:nodetypes="cccc" />
        <!-- Deep Red (far right) -->
        <path
           d="M 0,0 250.03212,-175.08363 V -48.60262 Z"
           fill="#c62828"
           id="path16"
           sodipodi:nodetypes="cccc" />
      </g>
    </g>
    <path
       id="rect17"
       style="display:inline;fill:#e8e8e8;fill-opacity:1;stroke-width:1.09012"
       d="m 157.63795,121.55282 c -9.5433,0 -16.33901,7.34212 -16.33901,16.33901 v 312.25671 c 0,9.68737 8.51019,16.33901 16.33901,16.33901 h 484.72408 c 8.69362,0 16.33901,-6.59044 16.33901,-16.33901 V 137.89183 c 0,-9.41089 -6.31763,-16.33901 -16.33901,-16.33901 z m 5.95339,9.41763 h 472.8173 c 9.73382,0 12.70812,4.3132 12.70812,12.70812 V 408.18408 H 150.88322 V 143.67857 c 0,-6.64696 2.37667,-12.70812 12.70812,-12.70812 z"
       sodipodi:nodetypes="ssssssssssssccss" />
  </g>
</svg>
